<mxfile host="app.diagrams.net" agent="Mozilla/5.0 (X11; Linux x86_64; rv:133.0) Gecko/20100101 Firefox/133.0" version="26.0.3" pages="3">
  <diagram name="Page-1" id="e56a1550-8fbb-45ad-956c-1786394a9013">
    <mxGraphModel dx="635" dy="1223" grid="1" gridSize="10" guides="1" tooltips="1" connect="1" arrows="1" fold="1" page="1" pageScale="1" pageWidth="1100" pageHeight="850" background="none" math="0" shadow="0">
      <root>
        <mxCell id="0" />
        <mxCell id="1" parent="0" />
        <mxCell id="UHASmpJU52qUvlyHFtrH-6" value="" style="edgeStyle=orthogonalEdgeStyle;rounded=0;orthogonalLoop=1;jettySize=auto;html=1;" edge="1" parent="1" source="UHASmpJU52qUvlyHFtrH-4" target="UHASmpJU52qUvlyHFtrH-5">
          <mxGeometry relative="1" as="geometry" />
        </mxCell>
        <mxCell id="UHASmpJU52qUvlyHFtrH-8" value="" style="edgeStyle=orthogonalEdgeStyle;rounded=0;orthogonalLoop=1;jettySize=auto;html=1;" edge="1" parent="1" source="UHASmpJU52qUvlyHFtrH-4" target="UHASmpJU52qUvlyHFtrH-7">
          <mxGeometry relative="1" as="geometry" />
        </mxCell>
        <mxCell id="UHASmpJU52qUvlyHFtrH-4" value="&lt;font size=&quot;1&quot;&gt;index.js&lt;/font&gt;" style="ellipse;whiteSpace=wrap;html=1;fontSize=24;fontFamily=Helvetica;" vertex="1" parent="1">
          <mxGeometry x="720" y="-130" width="120" height="80" as="geometry" />
        </mxCell>
        <mxCell id="UHASmpJU52qUvlyHFtrH-5" value="&lt;font size=&quot;1&quot;&gt;index.css&lt;/font&gt;" style="ellipse;whiteSpace=wrap;html=1;fontSize=24;fontFamily=Helvetica;" vertex="1" parent="1">
          <mxGeometry x="920" y="-130" width="120" height="80" as="geometry" />
        </mxCell>
        <mxCell id="UHASmpJU52qUvlyHFtrH-10" value="" style="edgeStyle=orthogonalEdgeStyle;rounded=0;orthogonalLoop=1;jettySize=auto;html=1;" edge="1" parent="1" source="UHASmpJU52qUvlyHFtrH-7" target="UHASmpJU52qUvlyHFtrH-11">
          <mxGeometry relative="1" as="geometry">
            <mxPoint x="620" y="-250" as="targetPoint" />
          </mxGeometry>
        </mxCell>
        <mxCell id="UHASmpJU52qUvlyHFtrH-7" value="&lt;font size=&quot;1&quot;&gt;home.js&lt;/font&gt;" style="ellipse;whiteSpace=wrap;html=1;fontSize=24;fontFamily=Helvetica;" vertex="1" parent="1">
          <mxGeometry x="720" y="-290" width="120" height="80" as="geometry" />
        </mxCell>
        <mxCell id="UHASmpJU52qUvlyHFtrH-11" value="&lt;font size=&quot;1&quot;&gt;home.css&lt;/font&gt;" style="ellipse;whiteSpace=wrap;html=1;" vertex="1" parent="1">
          <mxGeometry x="560" y="-290" width="120" height="80" as="geometry" />
        </mxCell>
      </root>
    </mxGraphModel>
  </diagram>
  <diagram id="UIC9b25AcivMlvOGNruw" name="index.js">
    <mxGraphModel dx="794" dy="466" grid="1" gridSize="10" guides="1" tooltips="1" connect="1" arrows="1" fold="1" page="1" pageScale="1" pageWidth="850" pageHeight="1100" math="0" shadow="0">
      <root>
        <mxCell id="0" />
        <mxCell id="1" parent="0" />
        <mxCell id="zw0z92y8hxruBEj80OxQ-11" style="edgeStyle=orthogonalEdgeStyle;rounded=0;orthogonalLoop=1;jettySize=auto;html=1;" edge="1" parent="1" source="zw0z92y8hxruBEj80OxQ-1" target="zw0z92y8hxruBEj80OxQ-4">
          <mxGeometry relative="1" as="geometry" />
        </mxCell>
        <mxCell id="zw0z92y8hxruBEj80OxQ-1" value="Add Event Listener for home button" style="rounded=1;whiteSpace=wrap;html=1;absoluteArcSize=1;arcSize=14;strokeWidth=2;" vertex="1" parent="1">
          <mxGeometry x="420" y="40" width="110" height="100" as="geometry" />
        </mxCell>
        <mxCell id="zw0z92y8hxruBEj80OxQ-12" style="edgeStyle=orthogonalEdgeStyle;rounded=0;orthogonalLoop=1;jettySize=auto;html=1;" edge="1" parent="1">
          <mxGeometry relative="1" as="geometry">
            <mxPoint x="297.5" y="120" as="targetPoint" />
            <mxPoint x="210" y="90" as="sourcePoint" />
          </mxGeometry>
        </mxCell>
        <mxCell id="zw0z92y8hxruBEj80OxQ-13" value="" style="edgeStyle=orthogonalEdgeStyle;rounded=0;orthogonalLoop=1;jettySize=auto;html=1;" edge="1" parent="1" source="zw0z92y8hxruBEj80OxQ-2" target="zw0z92y8hxruBEj80OxQ-6">
          <mxGeometry relative="1" as="geometry" />
        </mxCell>
        <mxCell id="zw0z92y8hxruBEj80OxQ-2" value="create reference to div #content" style="whiteSpace=wrap;html=1;rounded=1;arcSize=14;strokeWidth=2;" vertex="1" parent="1">
          <mxGeometry x="80" y="60" width="120" height="60" as="geometry" />
        </mxCell>
        <mxCell id="zw0z92y8hxruBEj80OxQ-4" value="call home.js" style="whiteSpace=wrap;html=1;rounded=1;arcSize=14;strokeWidth=2;" vertex="1" parent="1">
          <mxGeometry x="600" y="40" width="170" height="100" as="geometry" />
        </mxCell>
        <mxCell id="zw0z92y8hxruBEj80OxQ-8" value="" style="edgeStyle=orthogonalEdgeStyle;rounded=0;orthogonalLoop=1;jettySize=auto;html=1;" edge="1" parent="1" source="zw0z92y8hxruBEj80OxQ-6" target="zw0z92y8hxruBEj80OxQ-1">
          <mxGeometry relative="1" as="geometry" />
        </mxCell>
        <mxCell id="zw0z92y8hxruBEj80OxQ-6" value="import home.js " style="whiteSpace=wrap;html=1;rounded=1;arcSize=14;strokeWidth=2;" vertex="1" parent="1">
          <mxGeometry x="225" y="60" width="145" height="60" as="geometry" />
        </mxCell>
      </root>
    </mxGraphModel>
  </diagram>
  <diagram id="_8umVOMU6SZRU_KPrKJF" name="Page-3">
    <mxGraphModel dx="1644" dy="466" grid="1" gridSize="10" guides="1" tooltips="1" connect="1" arrows="1" fold="1" page="1" pageScale="1" pageWidth="850" pageHeight="1100" math="0" shadow="0">
      <root>
        <mxCell id="0" />
        <mxCell id="1" parent="0" />
        <mxCell id="PlsoT4kuz8p8dgoZIhy3-3" value="" style="edgeStyle=orthogonalEdgeStyle;rounded=0;orthogonalLoop=1;jettySize=auto;html=1;entryX=0.59;entryY=0.083;entryDx=0;entryDy=0;entryPerimeter=0;" parent="1" source="PlsoT4kuz8p8dgoZIhy3-4" target="PlsoT4kuz8p8dgoZIhy3-6" edge="1">
          <mxGeometry relative="1" as="geometry">
            <mxPoint x="400" y="340" as="targetPoint" />
          </mxGeometry>
        </mxCell>
        <mxCell id="PlsoT4kuz8p8dgoZIhy3-9" value="" style="edgeStyle=orthogonalEdgeStyle;rounded=0;orthogonalLoop=1;jettySize=auto;html=1;" parent="1" source="PlsoT4kuz8p8dgoZIhy3-1" target="PlsoT4kuz8p8dgoZIhy3-8" edge="1">
          <mxGeometry relative="1" as="geometry" />
        </mxCell>
        <mxCell id="PlsoT4kuz8p8dgoZIhy3-1" value="define homePage()" style="rounded=1;whiteSpace=wrap;html=1;absoluteArcSize=1;arcSize=14;strokeWidth=2;" parent="1" vertex="1">
          <mxGeometry x="40" y="360" width="150" height="80" as="geometry" />
        </mxCell>
        <mxCell id="PlsoT4kuz8p8dgoZIhy3-4" value="load mainImage" style="shape=parallelogram;html=1;strokeWidth=2;perimeter=parallelogramPerimeter;whiteSpace=wrap;rounded=1;arcSize=12;size=0.23;" parent="1" vertex="1">
          <mxGeometry x="270" y="280" width="165" height="60" as="geometry" />
        </mxCell>
        <mxCell id="PlsoT4kuz8p8dgoZIhy3-12" value="" style="edgeStyle=orthogonalEdgeStyle;rounded=0;orthogonalLoop=1;jettySize=auto;html=1;" parent="1" source="PlsoT4kuz8p8dgoZIhy3-6" target="PlsoT4kuz8p8dgoZIhy3-11" edge="1">
          <mxGeometry relative="1" as="geometry" />
        </mxCell>
        <mxCell id="PlsoT4kuz8p8dgoZIhy3-6" value="append the image to #home div" style="strokeWidth=2;html=1;shape=mxgraph.flowchart.display;whiteSpace=wrap;" parent="1" vertex="1">
          <mxGeometry x="510" y="250" width="212.5" height="70" as="geometry" />
        </mxCell>
        <mxCell id="PlsoT4kuz8p8dgoZIhy3-10" style="edgeStyle=orthogonalEdgeStyle;rounded=0;orthogonalLoop=1;jettySize=auto;html=1;entryX=0.5;entryY=0;entryDx=0;entryDy=0;" parent="1" source="PlsoT4kuz8p8dgoZIhy3-8" target="PlsoT4kuz8p8dgoZIhy3-4" edge="1">
          <mxGeometry relative="1" as="geometry" />
        </mxCell>
        <mxCell id="PlsoT4kuz8p8dgoZIhy3-8" value="create #home div" style="rounded=1;whiteSpace=wrap;html=1;arcSize=14;strokeWidth=2;" parent="1" vertex="1">
          <mxGeometry x="120" y="240" width="120" height="60" as="geometry" />
        </mxCell>
        <mxCell id="PlsoT4kuz8p8dgoZIhy3-23" value="" style="edgeStyle=orthogonalEdgeStyle;rounded=0;orthogonalLoop=1;jettySize=auto;html=1;" parent="1" source="PlsoT4kuz8p8dgoZIhy3-11" target="PlsoT4kuz8p8dgoZIhy3-15" edge="1">
          <mxGeometry relative="1" as="geometry" />
        </mxCell>
        <mxCell id="PlsoT4kuz8p8dgoZIhy3-11" value="append #home to #content" style="whiteSpace=wrap;html=1;strokeWidth=2;" parent="1" vertex="1">
          <mxGeometry x="240" y="420" width="293.75" height="60" as="geometry" />
        </mxCell>
        <mxCell id="IyZ8vTkJ6P4GHvnH4kkH-10" value="" style="edgeStyle=orthogonalEdgeStyle;rounded=0;orthogonalLoop=1;jettySize=auto;html=1;" edge="1" parent="1" source="PlsoT4kuz8p8dgoZIhy3-13" target="IyZ8vTkJ6P4GHvnH4kkH-6">
          <mxGeometry relative="1" as="geometry" />
        </mxCell>
        <mxCell id="PlsoT4kuz8p8dgoZIhy3-13" value="" style="rounded=1;absoluteArcSize=1;html=1;arcSize=10;" parent="1" vertex="1">
          <mxGeometry x="141.88" y="520" width="538.12" height="200" as="geometry" />
        </mxCell>
        <mxCell id="PlsoT4kuz8p8dgoZIhy3-14" value="div #homeText" style="html=1;shape=mxgraph.er.anchor;whiteSpace=wrap;" parent="PlsoT4kuz8p8dgoZIhy3-13" vertex="1">
          <mxGeometry x="-61.88" width="243.0081300813008" height="200" as="geometry" />
        </mxCell>
        <mxCell id="PlsoT4kuz8p8dgoZIhy3-15" value="div #rank" style="rounded=1;absoluteArcSize=1;html=1;arcSize=10;whiteSpace=wrap;points=[];strokeColor=inherit;fillColor=inherit;" parent="PlsoT4kuz8p8dgoZIhy3-13" vertex="1">
          <mxGeometry x="148.11951219512196" width="43.82113821138211" height="180" as="geometry" />
        </mxCell>
        <mxCell id="PlsoT4kuz8p8dgoZIhy3-17" value="&lt;div&gt;div #mainMessage&lt;/div&gt;&lt;div&gt;&lt;br&gt;&lt;/div&gt;" style="whiteSpace=wrap;html=1;fillColor=inherit;strokeColor=inherit;rounded=1;arcSize=10;" parent="PlsoT4kuz8p8dgoZIhy3-13" vertex="1">
          <mxGeometry x="208.11560975609757" y="40" width="95.60975609756098" height="120" as="geometry" />
        </mxCell>
        <mxCell id="PlsoT4kuz8p8dgoZIhy3-18" value="" style="edgeStyle=orthogonalEdgeStyle;rounded=0;orthogonalLoop=1;jettySize=auto;html=1;" parent="PlsoT4kuz8p8dgoZIhy3-13" source="PlsoT4kuz8p8dgoZIhy3-15" target="PlsoT4kuz8p8dgoZIhy3-17" edge="1">
          <mxGeometry relative="1" as="geometry" />
        </mxCell>
        <mxCell id="PlsoT4kuz8p8dgoZIhy3-21" value="&lt;div&gt;div #coffee-info&lt;br&gt;&lt;/div&gt;&lt;div&gt;&lt;br&gt;&lt;/div&gt;" style="whiteSpace=wrap;html=1;fillColor=inherit;strokeColor=inherit;rounded=1;arcSize=10;" parent="PlsoT4kuz8p8dgoZIhy3-13" vertex="1">
          <mxGeometry x="318.1240650406504" y="40" width="95.60975609756098" height="120" as="geometry" />
        </mxCell>
        <mxCell id="PlsoT4kuz8p8dgoZIhy3-22" value="" style="edgeStyle=orthogonalEdgeStyle;rounded=0;orthogonalLoop=1;jettySize=auto;html=1;" parent="PlsoT4kuz8p8dgoZIhy3-13" source="PlsoT4kuz8p8dgoZIhy3-17" target="PlsoT4kuz8p8dgoZIhy3-21" edge="1">
          <mxGeometry relative="1" as="geometry" />
        </mxCell>
        <mxCell id="IyZ8vTkJ6P4GHvnH4kkH-1" value="Order button" style="whiteSpace=wrap;html=1;fillColor=inherit;strokeColor=inherit;rounded=1;arcSize=10;" vertex="1" parent="PlsoT4kuz8p8dgoZIhy3-13">
          <mxGeometry x="418.12" y="40" width="81.88" height="110" as="geometry" />
        </mxCell>
        <mxCell id="IyZ8vTkJ6P4GHvnH4kkH-2" value="" style="edgeStyle=orthogonalEdgeStyle;rounded=0;orthogonalLoop=1;jettySize=auto;html=1;" edge="1" parent="PlsoT4kuz8p8dgoZIhy3-13" source="PlsoT4kuz8p8dgoZIhy3-21" target="IyZ8vTkJ6P4GHvnH4kkH-1">
          <mxGeometry relative="1" as="geometry" />
        </mxCell>
        <mxCell id="IyZ8vTkJ6P4GHvnH4kkH-20" value="" style="edgeStyle=orthogonalEdgeStyle;rounded=0;orthogonalLoop=1;jettySize=auto;html=1;" edge="1" parent="1" source="IyZ8vTkJ6P4GHvnH4kkH-3" target="IyZ8vTkJ6P4GHvnH4kkH-17">
          <mxGeometry relative="1" as="geometry" />
        </mxCell>
        <mxCell id="IyZ8vTkJ6P4GHvnH4kkH-3" value="" style="rounded=1;absoluteArcSize=1;html=1;arcSize=10;" vertex="1" parent="1">
          <mxGeometry x="20" y="770" width="519.06" height="120" as="geometry" />
        </mxCell>
        <mxCell id="IyZ8vTkJ6P4GHvnH4kkH-4" value="#types of chocolate" style="html=1;shape=mxgraph.er.anchor;whiteSpace=wrap;" vertex="1" parent="IyZ8vTkJ6P4GHvnH4kkH-3">
          <mxGeometry width="259.53" height="120" as="geometry" />
        </mxCell>
        <mxCell id="IyZ8vTkJ6P4GHvnH4kkH-5" value="type 1" style="rounded=1;absoluteArcSize=1;html=1;arcSize=10;whiteSpace=wrap;points=[];strokeColor=inherit;fillColor=inherit;" vertex="1" parent="IyZ8vTkJ6P4GHvnH4kkH-3">
          <mxGeometry x="259.53" y="6" width="70.2412833545108" height="108" as="geometry" />
        </mxCell>
        <mxCell id="IyZ8vTkJ6P4GHvnH4kkH-6" value="type 2" style="rounded=1;absoluteArcSize=1;html=1;arcSize=10;whiteSpace=wrap;points=[];strokeColor=inherit;fillColor=inherit;" vertex="1" parent="IyZ8vTkJ6P4GHvnH4kkH-3">
          <mxGeometry x="347.1276666889587" y="6" width="60.66055975389554" height="108" as="geometry" />
        </mxCell>
        <mxCell id="IyZ8vTkJ6P4GHvnH4kkH-7" value="" style="edgeStyle=orthogonalEdgeStyle;rounded=0;orthogonalLoop=1;jettySize=auto;html=1;" edge="1" parent="IyZ8vTkJ6P4GHvnH4kkH-3" source="IyZ8vTkJ6P4GHvnH4kkH-5" target="IyZ8vTkJ6P4GHvnH4kkH-6">
          <mxGeometry relative="1" as="geometry">
            <Array as="points">
              <mxPoint x="381.8404333578546" y="48" />
              <mxPoint x="381.8404333578546" y="48" />
            </Array>
          </mxGeometry>
        </mxCell>
        <mxCell id="IyZ8vTkJ6P4GHvnH4kkH-8" value="type 3" style="rounded=1;absoluteArcSize=1;html=1;arcSize=10;whiteSpace=wrap;points=[];strokeColor=inherit;fillColor=inherit;" vertex="1" parent="IyZ8vTkJ6P4GHvnH4kkH-3">
          <mxGeometry x="432.27808332776027" y="6" width="69.42553333779175" height="108" as="geometry" />
        </mxCell>
        <mxCell id="IyZ8vTkJ6P4GHvnH4kkH-9" value="" style="edgeStyle=orthogonalEdgeStyle;rounded=0;orthogonalLoop=1;jettySize=auto;html=1;" edge="1" parent="IyZ8vTkJ6P4GHvnH4kkH-3" source="IyZ8vTkJ6P4GHvnH4kkH-6" target="IyZ8vTkJ6P4GHvnH4kkH-8">
          <mxGeometry relative="1" as="geometry" />
        </mxCell>
        <mxCell id="IyZ8vTkJ6P4GHvnH4kkH-22" value="" style="edgeStyle=orthogonalEdgeStyle;rounded=0;orthogonalLoop=1;jettySize=auto;html=1;" edge="1" parent="1" source="IyZ8vTkJ6P4GHvnH4kkH-17" target="IyZ8vTkJ6P4GHvnH4kkH-21">
          <mxGeometry relative="1" as="geometry" />
        </mxCell>
        <mxCell id="IyZ8vTkJ6P4GHvnH4kkH-17" value="" style="rounded=1;absoluteArcSize=1;html=1;arcSize=10;" vertex="1" parent="1">
          <mxGeometry x="-80" y="970" width="580" height="250" as="geometry" />
        </mxCell>
        <mxCell id="IyZ8vTkJ6P4GHvnH4kkH-18" value="About us" style="html=1;shape=mxgraph.er.anchor;whiteSpace=wrap;" vertex="1" parent="IyZ8vTkJ6P4GHvnH4kkH-17">
          <mxGeometry width="290" height="250" as="geometry" />
        </mxCell>
        <mxCell id="IyZ8vTkJ6P4GHvnH4kkH-19" value="Chocoloate lovers image" style="rounded=1;absoluteArcSize=1;html=1;arcSize=10;whiteSpace=wrap;points=[];strokeColor=inherit;fillColor=inherit;" vertex="1" parent="IyZ8vTkJ6P4GHvnH4kkH-17">
          <mxGeometry x="491.8987341772152" y="12.5" width="59.101265822784804" height="225" as="geometry" />
        </mxCell>
        <mxCell id="IyZ8vTkJ6P4GHvnH4kkH-11" value="" style="rounded=1;absoluteArcSize=1;html=1;arcSize=10;" vertex="1" parent="IyZ8vTkJ6P4GHvnH4kkH-17">
          <mxGeometry x="227.59493670886079" y="45.5" width="242.2784810126582" height="159" as="geometry" />
        </mxCell>
        <mxCell id="IyZ8vTkJ6P4GHvnH4kkH-12" value="About us text" style="html=1;shape=mxgraph.er.anchor;whiteSpace=wrap;" vertex="1" parent="IyZ8vTkJ6P4GHvnH4kkH-11">
          <mxGeometry width="103.19268635724329" height="159" as="geometry" />
        </mxCell>
        <mxCell id="IyZ8vTkJ6P4GHvnH4kkH-13" value="about chocolate lovers" style="rounded=1;absoluteArcSize=1;html=1;arcSize=10;whiteSpace=wrap;points=[];strokeColor=inherit;fillColor=inherit;" vertex="1" parent="IyZ8vTkJ6P4GHvnH4kkH-11">
          <mxGeometry x="103.19268635724329" y="7.949999999999999" width="31.406469760900137" height="143.1" as="geometry" />
        </mxCell>
        <mxCell id="IyZ8vTkJ6P4GHvnH4kkH-14" value="About us button &quot;it has the same functionality of the main button&quot;" style="rounded=1;absoluteArcSize=1;html=1;arcSize=10;whiteSpace=wrap;points=[];strokeColor=inherit;fillColor=inherit;" vertex="1" parent="IyZ8vTkJ6P4GHvnH4kkH-11">
          <mxGeometry x="152.54571026722923" y="34.5" width="71.78621659634317" height="90" as="geometry" />
        </mxCell>
        <mxCell id="IyZ8vTkJ6P4GHvnH4kkH-15" value="" style="edgeStyle=orthogonalEdgeStyle;rounded=0;orthogonalLoop=1;jettySize=auto;html=1;" edge="1" parent="IyZ8vTkJ6P4GHvnH4kkH-11" source="IyZ8vTkJ6P4GHvnH4kkH-13" target="IyZ8vTkJ6P4GHvnH4kkH-14">
          <mxGeometry relative="1" as="geometry" />
        </mxCell>
        <mxCell id="IyZ8vTkJ6P4GHvnH4kkH-21" value="&lt;div align=&quot;left&quot;&gt;Grid Icons of menus&lt;/div&gt;" style="whiteSpace=wrap;html=1;rounded=1;arcSize=20;align=left;container=1;" vertex="1" parent="1">
          <mxGeometry x="-85" y="1250" width="590" height="240" as="geometry" />
        </mxCell>
        <mxCell id="IyZ8vTkJ6P4GHvnH4kkH-23" value="" style="rounded=1;arcSize=10;whiteSpace=wrap;html=1;align=center;container=1;" vertex="1" parent="IyZ8vTkJ6P4GHvnH4kkH-21">
          <mxGeometry x="276.03" y="10" width="300" height="220" as="geometry" />
        </mxCell>
        <mxCell id="IyZ8vTkJ6P4GHvnH4kkH-28" value="" style="edgeStyle=orthogonalEdgeStyle;rounded=0;orthogonalLoop=1;jettySize=auto;html=1;" edge="1" parent="1" source="IyZ8vTkJ6P4GHvnH4kkH-25" target="IyZ8vTkJ6P4GHvnH4kkH-27">
          <mxGeometry relative="1" as="geometry" />
        </mxCell>
        <mxCell id="IyZ8vTkJ6P4GHvnH4kkH-24" value="image " style="ellipse;whiteSpace=wrap;html=1;align=center;fontStyle=4;" vertex="1" parent="1">
          <mxGeometry x="270" y="1260" width="100" height="50" as="geometry" />
        </mxCell>
        <mxCell id="IyZ8vTkJ6P4GHvnH4kkH-27" value="price" style="ellipse;whiteSpace=wrap;html=1;align=center;" vertex="1" parent="1">
          <mxGeometry x="220" y="1400" width="100" height="60" as="geometry" />
        </mxCell>
        <mxCell id="IyZ8vTkJ6P4GHvnH4kkH-29" value="" style="edgeStyle=orthogonalEdgeStyle;rounded=0;orthogonalLoop=1;jettySize=auto;html=1;" edge="1" parent="1" source="IyZ8vTkJ6P4GHvnH4kkH-24" target="IyZ8vTkJ6P4GHvnH4kkH-25">
          <mxGeometry relative="1" as="geometry">
            <mxPoint x="320" y="1310" as="sourcePoint" />
            <mxPoint x="350" y="1410" as="targetPoint" />
          </mxGeometry>
        </mxCell>
        <mxCell id="IyZ8vTkJ6P4GHvnH4kkH-25" value="description" style="ellipse;whiteSpace=wrap;html=1;align=center;fontStyle=4;" vertex="1" parent="1">
          <mxGeometry x="279.53" y="1340" width="100" height="40" as="geometry" />
        </mxCell>
        <mxCell id="IyZ8vTkJ6P4GHvnH4kkH-30" value="but button" style="ellipse;whiteSpace=wrap;html=1;align=center;" vertex="1" parent="1">
          <mxGeometry x="370" y="1420" width="100" height="40" as="geometry" />
        </mxCell>
      </root>
    </mxGraphModel>
  </diagram>
</mxfile>
